<?xml version="1.0" encoding="utf-8"?>
<!-- Generator: Adobe Illustrator 28.3.0, SVG Export Plug-In . SVG Version: 6.00 Build 0)  -->
<svg version="1.1" id="Layer_1" xmlns="http://www.w3.org/2000/svg" xmlns:xlink="http://www.w3.org/1999/xlink" x="0px" y="0px"
	 viewBox="0 0 683.5 255.5" style="enable-background:new 0 0 683.5 255.5;" xml:space="preserve">
<style type="text/css">
	.st0{fill:#FFFFFF;}
	.st1{fill:url(#SVGID_1_);}
	.st2{fill:url(#SVGID_00000072979084552313586570000015270553819689257126_);}
	.st3{fill:url(#SVGID_00000128480616981507573170000017960744447824107944_);}
	.st4{fill:url(#SVGID_00000141427817798010686350000016577372726904544394_);}
	.st5{fill:url(#SVGID_00000068646362542149341450000014146853836348775592_);}
</style>
<image style="overflow:visible;" width="300" height="91" xlink:href="6EEACCE4.jpg"  transform="matrix(1 0 0 1 -7232 -7652)">
</image>
<g id="Layer_1_00000070827164070502073640000010549570326128044194_">
</g>
<g id="_x3C_Layer_x3E_">
	<g>
		<path class="st0" d="M47.4,42.2c0,4.3-3.4,6.8-9.9,6.8H24.6V24.1h12.1c6.2,0,9.4,2.6,9.4,6.5c0,2.5-1.3,4.4-3.3,5.5
			C45.6,36.9,47.4,39,47.4,42.2z M30.3,28.4v5.9H36c2.8,0,4.3-1,4.3-2.9c0-2-1.5-2.9-4.3-2.9h-5.7V28.4z M41.6,41.5
			c0-2.1-1.6-3.1-4.6-3.1h-6.7v6.1H37C40,44.6,41.6,43.7,41.6,41.5z"/>
		<path class="st0" d="M60,38V24.1h5.7v13.7c0,4.7,2.1,6.7,5.5,6.7c3.5,0,5.5-2,5.5-6.7V24.1h5.7V38c0,7.3-4.2,11.4-11.2,11.4
			S60,45.3,60,38z"/>
		<path class="st0" d="M96.7,24.1h5.7v24.8h-5.7V24.1z"/>
		<path class="st0" d="M116.8,24.1h5.7v20.2H135V49h-18.2V24.1z"/>
		<path class="st0" d="M149.6,28.8h-7.9v-4.7h21.6v4.7h-7.9V49h-5.7V28.8H149.6z"/>
		<path class="st0" d="M228.9,24.1l-8.1,24.8h-6.2l-5.5-16.8l-5.6,16.8h-6.1l-8.2-24.8h6l5.6,17.5l5.9-17.5h5.3l5.7,17.6l5.8-17.6
			C223.5,24.1,228.9,24.1,228.9,24.1z"/>
		<path class="st0" d="M240.6,24.1h5.7v24.8h-5.7V24.1z"/>
		<path class="st0" d="M265.9,28.8H258v-4.7h21.6v4.7h-7.9V49H266V28.8H265.9z"/>
		<path class="st0" d="M313.9,24.1v24.8h-5.7V38.7h-11.3v10.2h-5.7V24.1h5.7v9.8h11.3v-9.8C308.2,24.1,313.9,24.1,313.9,24.1z"/>
	</g>
</g>
<g id="_x3C_Layer_x3E__00000101805166356094482930000004025362215859257989_">
	
		<linearGradient id="SVGID_1_" gradientUnits="userSpaceOnUse" x1="89.547" y1="25.854" x2="89.547" y2="184.814" gradientTransform="matrix(1 0 0 -1 0 258)">
		<stop  offset="0" style="stop-color:#FF5923"/>
		<stop  offset="0.9684" style="stop-color:#F69000"/>
	</linearGradient>
	<path class="st1" d="M21.4,232.1h136.3v-66.1L144,154.4l13.7-11.4V73.2H21.4V232.1z M66.8,114.3h45.4v20H66.8V114.3z M66.8,173.8
		h45.4v20H66.8V173.8z"/>
	
		<linearGradient id="SVGID_00000070841144729624967970000005245630123913129657_" gradientUnits="userSpaceOnUse" x1="383.646" y1="25.962" x2="383.646" y2="184.922" gradientTransform="matrix(1 0 0 -1 0 258)">
		<stop  offset="0" style="stop-color:#FF5923"/>
		<stop  offset="0.9684" style="stop-color:#F69000"/>
	</linearGradient>
	<polygon style="fill:url(#SVGID_00000070841144729624967970000005245630123913129657_);" points="376.9,73.1 331.5,73.1 331.5,232 
		435.8,232 435.8,186.6 376.9,186.6 	"/>
	
		<linearGradient id="SVGID_00000168802606548574150560000014772286791638619055_" gradientUnits="userSpaceOnUse" x1="477.865" y1="25.962" x2="477.865" y2="184.922" gradientTransform="matrix(1 0 0 -1 0 258)">
		<stop  offset="0" style="stop-color:#FF5923"/>
		<stop  offset="0.9684" style="stop-color:#F69000"/>
	</linearGradient>
	<polygon style="fill:url(#SVGID_00000168802606548574150560000014772286791638619055_);" points="409.7,73.1 409.7,118.5 
		455.2,118.5 455.2,232 500.6,232 500.6,118.5 546,118.5 546,73.1 	"/>
	<g>
		
			<linearGradient id="SVGID_00000008134429892908128910000012482203268585221297_" gradientUnits="userSpaceOnUse" x1="212.4065" y1="-4.1292" x2="212.4065" y2="215.0142" gradientTransform="matrix(1 0 0 -1 0 258)">
			<stop  offset="0" style="stop-color:#FF5923"/>
			<stop  offset="0.9684" style="stop-color:#F69000"/>
		</linearGradient>
		<polygon style="fill:url(#SVGID_00000008134429892908128910000012482203268585221297_);" points="209,171.5 248.6,73.1 
			176.2,73.1 176.2,232 232.6,232 239.1,171.5 		"/>
		
			<linearGradient id="SVGID_00000009553211967572776220000013466792826988740233_" gradientUnits="userSpaceOnUse" x1="276.938" y1="-4.1292" x2="276.938" y2="215.0142" gradientTransform="matrix(1 0 0 -1 0 258)">
			<stop  offset="0" style="stop-color:#FF5923"/>
			<stop  offset="0.9684" style="stop-color:#F69000"/>
		</linearGradient>
		<polygon style="fill:url(#SVGID_00000009553211967572776220000013466792826988740233_);" points="312.5,73.1 257.5,73.1 
			250.9,133.6 281.1,133.6 241.4,232 312.5,232 		"/>
	</g>
	<g>
		<path class="st0" d="M524.4,212.2v-26.4h10.2V212c0,7.5,3.8,11.4,10,11.4c6.2,0,10-3.8,10-11.1v-26.5h10.2v26.1
			c0,14-7.9,20.9-20.3,20.9C532,232.8,524.4,225.8,524.4,212.2z"/>
		<path class="st0" d="M587,208.5l-15.4-22.7h11.9l9.6,15l9.8-15h11.5L599,208.4l16.1,23.6h-11.9l-10.4-15.8L582.4,232h-11.5
			L587,208.5z"/>
		<path class="st0" d="M622.7,185.8h18.9c11,0,17.7,6.5,17.7,16v0.1c0,10.7-8.3,16.2-18.7,16.2h-7.7V232h-10.2V185.8z M640.9,209.1
			c5.1,0,8.1-3,8.1-7V202c0-4.6-3.2-7-8.2-7h-7.9v14.1H640.9z"/>
	</g>
</g>
</svg>
